/* XPM */
static char *_0d06e7d9de94cdac72bdc3967f75086[] = {
/* columns rows colors chars-per-pixel */
"64 64 2 1 ",
"  c #FFF3CE",
". c white",
/* pixels */
"................................................................",
".                              ..                              .",
".                              ..                              .",
".                              ..                              .",
".                              ..                              .",
".                              ..                              .",
".                              ..                              .",
".                              ..                              .",
".                              ..                              .",
".                              ..                              .",
".                              ..                              .",
".                              ..                              .",
".                              ..                              .",
".                              ..                              .",
".                              ..                              .",
".                              ..                              .",
".                              ..                              .",
".                              ..                              .",
".                              ..                              .",
".                              ..                              .",
".                              ..                              .",
".                              ..                              .",
".                              ..                              .",
".                              ..                              .",
".                              ..                              .",
".                              ..                              .",
".                              ..                              .",
".                              ..                              .",
".                              ..                              .",
".                              ..                              .",
".                              ..                              .",
"................................................................",
"................................................................",
".                              ..                              .",
".                              ..                              .",
".                              ..                              .",
".                              ..                              .",
".                              ..                              .",
".                              ..                              .",
".                              ..                              .",
".                              ..                              .",
".                              ..                              .",
".                              ..                              .",
".                              ..                              .",
".                              ..                              .",
".                              ..                              .",
".                              ..                              .",
".                              ..                              .",
".                              ..                              .",
".                              ..                              .",
".                              ..                              .",
".                              ..                              .",
".                              ..                              .",
".                              ..                              .",
".                              ..                              .",
".                              ..                              .",
".                              ..                              .",
".                              ..                              .",
".                              ..                              .",
".                              ..                              .",
".                              ..                              .",
".                              ..                              .",
".                              ..                              .",
"................................................................"
};
