/* XPM */
static char *aa9070db37db4779e196eb01e424c7b1[] = {
/* columns rows colors chars-per-pixel */
"64 64 46 1 ",
"  c #010101",
". c gray2",
"X c #0B0B0B",
"o c gray5",
"O c #131313",
"+ c gray8",
"@ c gray10",
"# c gray12",
"$ c #202020",
"% c gray15",
"& c gray16",
"* c #2C2C2C",
"= c #313131",
"- c #343434",
"; c #393939",
": c #3E3E3E",
"> c gray25",
", c #444444",
"< c gray29",
"1 c #4C4C4C",
"2 c #535353",
"3 c #565656",
"4 c #585858",
"5 c gray36",
"6 c #606060",
"7 c gray40",
"8 c DimGray",
"9 c #6F6F6F",
"0 c #727272",
"q c gray46",
"w c gray48",
"e c #7E7E7E",
"r c gray51",
"t c gray53",
"y c gray54",
"u c #8E8E8E",
"i c #939393",
"p c gray58",
"a c #9A9A9A",
"s c gray61",
"d c gray64",
"f c gray65",
"g c #A9A9A9",
"h c #ACACAC",
"j c gray69",
"k c #B6B6B6",
/* pixels */
"qfdgdpppaasffgghhhggdspspiuipsspertyippppyyittuiurtrwrtytwryyyr9",
"whdddsaadpafghhgjjhhggdsityupppyrrtyuyuiuttyterrtuyyyrtyteerrrr9",
"ujgffdaptpsfkjjjjkjhjjguyuyuppuitrtiuttq9etewwetttyuuyrq0trtyteq",
"uhjgdaie3isfjjhjhhgddss0quiiytiuwttuyee5<erteeererettte2<ttrtte0",
"yhffdaitypsapffsddssspiiaiupuyitqterrew0qrrertreweeetee9eerrwye9",
"rsddssppisssddaasdsdfuiiipapiuut00qwrttreryyttrrrtrweqrurrre9re8",
"9adassassddsddffddsssaiupiippiuy7790wtrtrtyyrywwyrttyttytrrtrwq8",
"9udisapsdsssasssadddspiupiuppiur7880qeeererrwwwerrrtttryytryrw97",
"7ysaiiiapaapiasppaadaiipspuuiuur898wetrrwwwwq0qwrrtruyrttrtyer95",
"7yaiiiuuyapsfspaapsappasspuuuuur088wweerrq0q9090qererrrtrtttrr06",
"8upauuuiuipadapsassappaaspiuuyye9808qwweew0w88888qewwrwrrtrreew7",
"9yiiiuiiiippppaaasddssssdppiuute8700qwqew08q98889q0q0wqewretrte6",
"8ttupiipiiipaasdassadfsssappiytw680wwe0qq090009908q0000q0etytrw7",
"5etyyiuiiiasaasddfdadfsasaiiuuur60weqeww00qw08808698900qqqttreq8",
"5erytuuiiasdddsasddsffsdsaapupiyqeeewwwwqqww09987767890qqqrrreq9",
"5eetuuuyyupsfdadffssfdssddfsiaiueqqrwtewwewqqqq98889009qq0rtrrq8",
"5reryuttryupfssfggsdgsaasfsspaiyeqqwwewereeqwwq9999qww7q00ertre8",
"3ettyyr8<ruafffffgdfgdsq7ppaiuyrqq0qqwq53q0qerq000qwww94,0wttrr0",
"3werrtrq6rtiasfssddfdsse0iiuutwq9q8000w850qweeq0wqwqw0q71qwrree0",
"3qwrwrerrertypapppipapiiuiuyteeq80999wrrwweewee0qeewq0q09q0eeewq",
"39wwqqrrqwwttiiiuiyipuuiutteeee970000etterteewewqqwqqq9weweq0ww0",
"29qqrwwqqqeetuiyyrruiyyyyrrqqqq079800qrreereewqqwqwwrwqeewwewweq",
"18wweq0q00qertrrreettreteq099900676980qwewwerwq09qqwerqwewwerwee",
"30qw0q8649qwwweww0qrytwww9887787557678909qq0qeqq090werwqwqeqewew",
"1987585546988qqq90ewrr0007536342,<2211235778647778768q9887467769",
",22<<<,1,,<13565236735732244,>:>;>,1,,<2311124133333663442233168",
",8qqw0776446800qwwqw8weq0w908531,4266790090qqq088993895777757907",
"<7qq0087646867w00qqerr6wrw00754335566789988007778887q090w0997865",
"<6q090888779qq00wwetyeeyieq0744125545557777777987688q900qq0wqq05",
"<8988w099999wqqqweeerrerieq06553266566567767688885000wqwq0wwwwq8",
"<80980099809qwwwwewX    +rq787653774766676. 788880wqewwerqwwwew9",
",0q900976000eeqwee6 Orw8qtw797775777767771 @qq999qwewwe000weeew7",
"10009081>689qq0q00: =re21ew@..@58q5$..@3o   oq009wwe0er5:80wqwq9",
"199899841780wwqweq# 4rw87etwq5 @8r@ 5qq90@ 8reqqqqww9e0q878008w5",
"179800q9870eewqeew     +ew97=o o0y  2rttw .utrww0qqq9q0q86800qw6",
">709qwqq868qeqqww3 #wq9re4 @2; *0y<  2uy4 *itrrqqw9089090999q097",
":7090q0w999wqq990= ;q00ewo 46# 19rt3 .ia= 4atteereq0998wwq090q06",
">80qww99989909778O 50w0er. 1:  06ty9 #pdX 4ayretterw0qqrew009007",
">70qwwwq076789086     Oyu6oo& #e9# .%esfe= %uyyyyyurrrwtwwwq0897",
";47900wq0800qqq0wwwtrtrtaprwrwrt0rtuiassapspiuuuuuituueewewwq896",
";5780qqqwqqrewq9errrteeqiatrtwrw9rruyyppapspuuiyuuyettewewwwq086",
":577qqqwwwweww0qeeewweeeuauttqww9tettryuuiapiuuyuiutyeerewqwq008",
">5689qwewwwq0qqqwerwrrryiaureeee9yerrrrtrtuuturrrttrrrereeqq9q09",
",5709wqwwqwqwqqqqerrretruiyewwew9rrttrreerttrterrerreterwee00q09",
"<80wwwww00weewq0wwtyrqweeuytwqeq8tyrreeqweeertrrttweeteeqerqwqq9",
"20qerrwq90qwwq00qqtyywqrwyyrweew8yureeq0qqwerreerrwweeq09qwqw098",
"29qwrrw8580q9890eeeyyyrw7turrere9tterew750qwerewrrrwew04<8000088",
"18qwere5:4798889ereeyuu0<tiyttrr7tqqwwq85890wetweerweeq5<6899999",
"3qqqwtw735889800ew80rytrquiyytr08w90qwq0000qweqwqwwwwwq998989988",
"4eq00wq0878098900089etqeutwqere87qwwq0qwwwqqwwqwwweewerwrw989887",
"5q000wwrq98wee078wqwetwwur00qwq949wwqweeetyterteeewqwrtett000986",
"3qq89tett0qeweq890eeyyttywq9qeq719qrrtreqtuiuiitrreqrtytrrqq0006",
"5qwewttre0eewqqwqertyyyiyeweqe97200rtreewrtuiytrweeeeteetrwwewq7",
"4qwtertrrwwwewwewttrtttrupeqww974qeeyrweeyytuuyrwqqweeeeerwee006",
"20wwreteeeeewwtrwyiuyutrupyrre075qrttrytrrtyuytwwwqqqrrrewwew995",
"39qwweerr88weerrwwtyrytrrurrtww96erttttrrrertt8qqwqwqrewqqwwq086",
"3wwqeewttewqwq9qwwrrer0wtyttrww85qqrtreeerrtrtwqqwwqqreqqqeqw087",
"3wqeewereewqq09eq0wqet0ewr0teeq95qeeweq0qweeeeq67qqqeeqwq0we0098",
"3wrrqqwwweqqq99wwewwrr9qw09wwqw94998q89900qqqqq9899q9wew0qrrw987",
"5qqeeeww0qq0980rweqqq999eq8999072660009990qqwq9988980qq0qqrew987",
"2qwwwqq87098869eew0w0800ww999997268009764800088998900q998q0e0874",
"1890qq83,5667669qwqe0907490966551468875,=279099996769074:90w7755",
"26789981=14454346909778<-6096554,124552>:<57878955466875>5e07543",
"<5667875122332235897445478865754,<<1321>>24566542323565458996411"
};
