/* XPM */
static char *_3d0138f6d1644b28eba3eaf17514c22[] = {
/* columns rows colors chars-per-pixel */
"64 64 125 2 ",
"   c #010000",
".  c #0A0502",
"X  c #0B0807",
"o  c #0C0A0A",
"O  c #130904",
"+  c #1B0D06",
"@  c #16100D",
"#  c #1B1513",
"$  c #1D1816",
"%  c #251107",
"&  c #26130A",
"*  c #2C160B",
"=  c #31170B",
"-  c #331A0D",
";  c #3C1E0F",
":  c #381E12",
">  c #3D2011",
",  c #292320",
"<  c #432111",
"1  c #4F2510",
"2  c #522711",
"3  c #532914",
"4  c #552D1A",
"5  c #6D3316",
"6  c #6B361B",
"7  c #763818",
"8  c #783D1E",
"9  c #583F33",
"0  c #714128",
"q  c #504540",
"w  c #584942",
"e  c #5B4E48",
"r  c #785F54",
"t  c #76655D",
"y  c #823E1B",
"u  c #8E431D",
"i  c #B8521D",
"p  c #864321",
"a  c #8B4623",
"s  c #904621",
"d  c #924A25",
"f  c #984D26",
"g  c #A05027",
"h  c #AA5225",
"j  c #A45329",
"k  c #A9552A",
"l  c #AF582C",
"z  c #B55321",
"x  c #B2592C",
"c  c #BA5E2E",
"v  c #BC5E30",
"b  c #BF602F",
"n  c #AA613D",
"m  c #C65B24",
"M  c #CB5D25",
"N  c #C65E2B",
"B  c #C95F29",
"V  c #CC6027",
"C  c #C7602D",
"Z  c #CB622D",
"A  c #C66332",
"S  c #CC6733",
"D  c #CC6835",
"F  c #C66739",
"G  c #C86738",
"H  c #C6683B",
"J  c #CB6B3B",
"K  c #8D6B5B",
"L  c #916450",
"P  c #8B776E",
"I  c #937B6F",
"U  c #C66E44",
"Y  c #C96E42",
"T  c #CD7245",
"R  c #C7734C",
"E  c #CC754A",
"W  c #CE784D",
"Q  c #CC7B54",
"!  c #CC7F5A",
"~  c #CD825D",
"^  c #D08159",
"/  c #CD8562",
"(  c #CD8866",
")  c #CE8A69",
"_  c #D08761",
"`  c #D08965",
"'  c #D08E6D",
"]  c #CF8F71",
"[  c #CF9274",
"{  c #CF957A",
"}  c #CF987F",
"|  c #D09376",
" . c #D0967A",
".. c #D0987E",
"X. c #AC9488",
"o. c #BA9A8C",
"O. c #B99E92",
"+. c #BCA194",
"@. c #CF9980",
"#. c #D19C83",
"$. c #D19F89",
"%. c #D2A087",
"&. c #D2A28C",
"*. c #C5A99C",
"=. c #CAA898",
"-. c #D3A691",
";. c #D3A995",
":. c #D4AE9D",
">. c #D5B09E",
",. c #CFB1A4",
"<. c #D5B3A3",
"1. c #D8B7A6",
"2. c #D6B7A9",
"3. c #D7B9AB",
"4. c #D8B9AB",
"5. c #D7BDB0",
"6. c #D8BEB2",
"7. c #D9C1B6",
"8. c #D1C4BE",
"9. c #DAC4BB",
"0. c #DBCBC3",
"q. c #DBCFC9",
"w. c #DDD2CD",
"e. c #DED5D1",
"r. c #DED9D6",
/* pixels */
":.:.:.>.>.1.9.>.:.>.:.>.:.:.:.>.:.>.<.0.:.>.:.:.:.>.>.>.:.>.:.7.5.:.>.>.>.>.>.>.>.>.>.:.w.:.:.>.>.:.:.>.:.>.<.>.>.q.:.:.>.:.:.>.",
"Z Z Z Z V T [ B Z Z Z Z Z Z Z B Z V S #.M N N N B Z Z B Z B B ( ! M V B N Z Z N V B N M :.m Z V N Z V Z V B B V m -.Z B N N B Z ",
"S S S S C E  .S C S S S S S S C A S H $.Z S S S S S S S S S Z ) ~ Z S S S S S S S S S Z <.N A S S S S S S A S A Z ;.S S S D S S ",
"S S S S S E  .Z S S S S S S S S S D J &.Z S S S S S S S S S Z ' _ S S S S S S S S S S V <.B S S S S S S S S S S Z ;.S S S S S S ",
"S S S S S E  .Z S D S D S S D S S S H &.Z S S S S S S S S S S ' ^ S S S S S D S S A A B <.Z S S D S S S S D S S Z ;.S S S S S S ",
"J J J J J W #.D J J J J J J J J J F Y -.D J J J J J J J J J D ] ` D J J J J J J J J G S 1.D J J J J J J J J J J A :.J J J J J J ",
" .#.#. ...#.:. ... ... . ...&.#. . .#.>. . ..... . . .;. . . .;.-... . ... .....-.{  .{ 1.{  ..... . . .&.%. . . .1. . ... . ...",
"W |  .W W W E W W W E W W W &.~ W E E W W W W W W W W 3.T W Q E E W W W W W W Q <.T W W E W W W W W W E ..' W W R E W W W W W W ",
"A ^ ( S S S S S D S S S Z S | E A Z S S S S S S S A Z >.Z S S S S D S S S S S G ;.Z S S S S S D S A A S ` ! S C S S S S S S S S ",
"S ~ ` Z S S S S S S S S S S | E S S S S S S D S S S S :.Z S S S S S S S S S S J -.Z A S S S S S S S S Z ' ! S S S S S S S S S S ",
"S ~ ` S S S S S D S S D S S | E S S S S S S D D S S Z >.Z Z S S D D S S A A S H ;.Z S S D S D S S S D Z ' ~ S S S S S S S D S S ",
"Z Q _ Z Z Z Z Z Z Z Z Z C Z [ T Z Z Z Z Z N Z Z Z Z B :.B Z Z Z Z Z Z Z Z Z Z S -.M Z Z Z Z Z Z Z V V B ( ! Z Z Z Z Z Z Z Z Z Z ",
"[ ;.:.[ | | | | |  . .| [ { 1.%.| | | |  .[ |  .[ [ | 0.[ [ | | | | | | | | |  .9.| | | ] | | [  .| | ] <.-.[ { | |  .[ | |  .| ",
") ) ) ) ) | >.( ) ) ` ) ) ) ) ) ) ' ] 1./ ) ) ) ) ) ) ) ) ) ( -.&.` ` ' ( ' ` ' ` ' ' ` 9.( ) ) ) ' ( ' ) ) ) ) ( 6.( ) ) ) ) ) ",
"Z S S Z Z E [ Z Z S S Z Z S Z C A Z H %.Z Z C Z S Z Z Z Z S Z ` ^ Z S Z A Z S Z Z Z S M :.B S Z S Z Z S Z C C S B -.Z S C Z Z Z ",
"S S S S A E { Z S S S S S S S S A S J %.Z A S S S S S D S S S ' _ Z S S S S S S S S S V <.N S S S S S S S S S A Z ;.S A S S S D ",
"S D S S S E  .Z S S S S S S D D D S J &.Z D S S S S S S S S Z ` ^ S D D D S S S A A D V <.C S D S S S S S S S S Z ;.S S S S S S ",
"S S S D S E | S S D S S S S D S S S D %.Z D S S S S S S S S S ` ~ Z S D S S S D S A A Z <.Z S D S S S S S S S S Z ;.S D S S S D ",
"J J J J D ^ ..J J J J J J J J J D J T -.D J J J J H J J J J J | ' J J J J J J J J J J D <.S J J J J J J J J J H S :.J J J J J J ",
"-.:.>.&.-.;.>.-.-.-.-.-.-.-.1.;.-.-.-.1.-.-.-.-.-.-.-.5.&.-.-.>.>.-.-.-.-.-.&.-.4.&.-.&.2.-.-.&.-.-.-.-.<.:.-.&.-.2.&.-.-.&.-.-.",
"J ~ ' D D D D J D J H H J J } W J S J D D D D J J J S <.A S J A D D D D J S J U :.S J J S J S J D S D D | ~ D J S S J D J D J J ",
"A ^ ` S S S S D S D S Z C S { E C Z S S D D S D S A Z :.Z S S S S S D D S S S J -.V S S S S D S S S A Z ' ! S C S S S D D S S S ",
"S ~ ` S S S S S S S S S S S { E S S S S S S S S S S S :.C S S S S D D S S S S J -.Z A S S S S S D S S S ) ! S S S S S S S S S S ",
"S ~ ~ S S S D S S S S S S S [ E S S S D S S S S S S Z :.V S S S S S S S C A S J -.Z S S S S S S S S S Z ' ~ S S S S S S S S S S ",
"Z Q / Z Z V C V Z V C Z C C ] T V Z C V C C Z V C V V =.m Z Z V Z V Z Z Z B B C &.B Z V Z Z Z Z V Z C B ) Q V Z Z Z Z N Z V Z Z ",
">.3.7.>.>.>.>.>.>.>.>.>.>.>.9.3.>.>.>.>.>.>.>.>.>.>.>.e.:.>.:.:.>.>.>.>.:.:.>.<.q.:.>.>.;.>.>.>.>.>.:.>.9.3.>.>.>.:.>.:.:.:.:.>.",
"H J J H J W } H H J J J H H J J J J U &.S H H H J H J J H J J [ ` D J J H J H J J J H S 1.A J J H H H J H J H J A :.J H J H J J ",
"S S S S S E { S S S S S S S S A S S H %.Z S A S S S S S S S Z ' ^ S D A S S S S S S S Z <.*   d S S S S S A S D Z ;.S S A A S S ",
"S S S S A E { C C S S D S S S S O & H &.Z A p > S S S S S Z Z ) ~ S S S S S S S .   b Z =.  . A S S S S S S S C C ;.S S S S S S ",
"S S S S S E { Z S S S S S S S j     4 %.Z S 3 8 S S S S S S S ) / Z S S S S S f   = S Z I   : A C S S D S J S S C ;.S S S S S S ",
"S S S S S E { S S S S D S D D 6       K Z S + l S k < X X ; x ` / 3   6 - + &       O Z w   *     < k S S S S A C ;.S S S S S S ",
"A A S A S E { C S A S A S A A - 8 .   o h k + S l X + x a   - ) / +       < A &   f A C $   8 v d   . S A S A S A ;.S A A A A A ",
"4.9.0.4.4.1.1.4.4.4.4.4.4.4.8.o <.t     , t e 3.q   P r.<.  . 1.O.  # +.2.2.*.  o ,.5.O.  $ 2.3.X.  # 2.0.9.2.4.4.1.4.4.4.4.4.4.",
"B Q ! M Z Z V V B B N B B M L : B N %       u B O   z :.i   O N 7   2 Z Z B y   4 M C 6   3 Z B 5   1 B ` Q B B N B V V Z B Z B ",
"S ! ` Z S S S S S S S C S S 9 0 A A g       A S     N >.y   3 S >   a S S S <   r Z A :   a S S -   u C ' ~ S A A S S S S S S S ",
"G ! ` S S S S D S S J S S S # n S S D 3   - S S -   s o.+ X c C .   C S S S .   r V A .   A S A     b S ` ! S S S S S S S S S S ",
"S ! ' S D D D D S S S S S x @ E S S S N O 6 S S x ; . X < l S f   = D S A A g > . = f   = S S d   - D Z ' ! S S S S S S S S S S ",
"D ! ' D D D D D D J D J G G  .W S J S J S S J S J J S <.Z D J J S J D J S H F J ;.S G J J S J J D J S S [ / S J J D J G J D J J ",
"$.;.;.#.$.$.;.#.$.#.$.$.$.$.:.&.#.$.%.:.$.$.$.#.#.$.#.4.#.#.$.-.-.#.#.#.#.#.@.&.1.#.$.#.:.#.$.#.#.#.#.$.;.;.#.$.#.:.#.#.$.$.#.#.",
"T T T T T ! #.T T T T T T T T T T T E ;.Y T U T T T T T T T T  .' T T T E T T E T T T J 1.Y T T E T T T T T T T Y :.T T Y Y T T ",
"D S S S A E  .Z S S S S S S S Z A S Y %.Z A S S S S S S S S A ) / Z D S S S S S S S S V <.N S S S S S S S A A S Z ;.S S A S S S ",
"S S S S S E @.Z C S S S S S S S S S J %.Z S S S S S S S S S Z ) ~ S S S S S S D S S S Z <.N S S S S S S S S S S Z ;.S S S S S S ",
"S S S D S E | S S S S S S S S S S D H &.Z S S S S S G S S S S ' ~ S S S S D S S A A S Z >.C S S D S S S S S S S C ;.S S S S S S ",
"Z S Z Z Z T | B S B S S S S Z S Z N J #.M S Z S S C Z Z S Z V ` ~ V S Z Z Z S Z Z S N M >.m S Z S Z S Z Z A Z Z N -.Z S Z Z S Z ",
"` ' ` ' )  .:.` ` ` ) ) ) ) ( ( ) ` ] 1.` ' ( ( ' ` ) ` ) ) ( ;.&.( ' ` ` ` ' ( ' ` ' / 9./ ` ' ' ` ` ' ) ) ) ( ( 6.` ` ` ` ) ) ",
" .;.:. . . .| |  . . . . . .4.$. . .|  . . . . . . .| 0.[  . .| |  . . . ...| #.9.|  . .|  . . . . .| | >.;. . . . ... ... . ...",
"Z Q ! Z Z Z S Z B S N N N S ] T B N N S Z Z Z Z Z Z B :.M B Z Z Z Z Z Z Z Z Z S &.M Z Z Z Z Z S Z N Z B ) ! Z N N Z Z Z Z Z Z Z ",
"S ! ` A S S S S S S S S S S { E S S S S S S S S S A S :.B S S S S S D S D D S J ;.B S S S S S S S S A Z ` ! S S S S S S D S S S ",
"S ! ) S S S S S S S S S S S  .E S S S S S S S S S S S :.B S S S S S S S N S S J ;.Z S S S S S S S S S S ' ! S S S S S S S S S S ",
"S ! ` S S S S S S S S S S S | E S S S S S S S S S S S :.Z S S S S S S S S A A S ;.Z S S S S S S S S S Z ' ! Z S D S S S S S S D ",
"T ' ] T T T T T T T T T Y T #.! T T T T T Y T T T T T 1.J T T T T T T T T T T W >.J T T T T T T T T T Y  .' T T T T T Y T T T T ",
"#.$.&.@.#.#.:.@.#.@.#.@.#.#.-.$.@.#.#.:.@.@.#.@.@.@.@.:.@.@.@.;.-.#.@.#.@.@.#.$.:.@.#. .1...#.#.#.@.@.@.-.$.#.#.#.<. .#.#...#.#.",
"Y J T J J W #.J T J Y T Y J J D Y Y T -.D Y Y J T J T D T J J | ` J J H J T J J J J J J 2.G J J J Y J T J J H J J >.J J J H J Y ",
"S S S S S W  .Z S S S S S S S D C S J $.Z A Z S S S S S S Z B ' _ S S S S S S S S S S Z <.N D D S S S S S S S S Z ;.D S A S S S ",
"S S S S S W | S Z S S S S S S S S S Y $.Z S S D S S S D S S S ' ^ S S S S S S S S S S Z <.N S S S S S S S S S S Z ;.S S S S S S ",
"S S S S S T  .Z S S S S S S S S S S J $.Z S S S S S S S S S S ` _ S S S S S S S A C S Z <.N S S S S D S S S S S Z ;.S S S S S D ",
"M V Z M M T | M V V B Z M Z Z Z N N S #.M B Z Z B N Z B Z B N ) ! M Z B Z Z Z V Z V Z m :.m Z V Z Z Z M Z V Z N m -.Z Z B V V Z ",
">.:.:.:.:.4.9.:.>.>.<.<.>.>.:.:.:.:.<.q.:.>.>.>.<.>.>.;.>.>.>.6.6.>.>.:.>.>.>.:.;.<.>.:.w.:.>.>.:.>.>.<.:.:.:.:.:.w.:.:.:.>.>.:.",
"T ) | Y T Y Y T T Y Y Y Y Y #.Q Y Y Y Y Y Y Y Y Y Y H 4.H Y Y Y Y Y Y Y Y Y Y E :.H U Y Y Y Y Y Y Y Y H { ( Y Y U Y Y Y Y Y Y Y ",
"S ! ` Z S S S S S S C C S S | E S A C S S S S S S S S >.M S S S S S S S S S S G -.V S S S S S S A C S Z ) ! Z S A A S S S S S S ",
"A ! ) C S S S S S S S S C D | E A S S S S S S S S S Z :.B S S S S S S S S S S J ;.Z S S S S S S S S S Z ) ~ S A S S S S S S S S ",
"S ! ` S S S S S D S S S S D  .E S S S S S S S S S S S :.B S S S S S S S C A S J -.Z S S S D S S S S S S ] ! S S D S S S S S S S ",
"S ! ` S S S S S S D G D C S  .E S S S S S S S S S S Z :.M S S S J S S S S A C G -.Z S S D S S D S S A N ) ! S S S S S A S S S S ",
"Y ) ] Y Y Y Y Y Y Y Y Y Y Y #.Q Y Y Y Y Y U Y Y Y Y Y 3.J Y Y Y Y Y Y Y Y Y Y E :.J Y T Y Y Y Y Y Y T J { ) J U T Y Y Y Y Y Y Y "
};
