/* XPM */
static char *ebfec760ded444a2d720c5d128c96219[] = {
/* columns rows colors chars-per-pixel */
"64 64 121 2 ",
"   c #010000",
".  c #0B0502",
"X  c #0C0908",
"o  c #140A04",
"O  c #1B0D06",
"+  c #13100F",
"@  c #151210",
"#  c #1C1512",
"$  c #1E1917",
"%  c #261207",
"&  c #241209",
"*  c #2E170C",
"=  c #33190C",
"-  c #3C1D0E",
";  c #321C12",
":  c #3B1F11",
">  c #342823",
",  c #372F2C",
"<  c #421E0C",
"1  c #44210F",
"2  c #432111",
"3  c #4C2511",
"4  c #512610",
"5  c #532914",
"6  c #5F3017",
"7  c #623218",
"8  c #6C361B",
"9  c #743A1D",
"0  c #433833",
"q  c #4C413C",
"w  c #7A4125",
"e  c #574A43",
"r  c #55504E",
"t  c #64564F",
"y  c #6F5E56",
"u  c #75645C",
"i  c #7D6B63",
"p  c #8B431E",
"a  c #9E4619",
"s  c #824121",
"d  c #8D4723",
"f  c #934924",
"g  c #9A4E26",
"h  c #934D2B",
"j  c #9E5028",
"k  c #A24F25",
"l  c #A25228",
"z  c #A9562B",
"x  c #AF582B",
"c  c #B15424",
"v  c #B45A2D",
"b  c #BA5D2E",
"n  c #C65A24",
"m  c #CB5D25",
"M  c #C65E2B",
"N  c #C95E29",
"B  c #CC6027",
"V  c #C6602D",
"C  c #CB622D",
"Z  c #C66332",
"A  c #CC6733",
"S  c #CC6835",
"D  c #C66739",
"F  c #C86738",
"G  c #C6683B",
"H  c #CB6B3B",
"J  c #8B614D",
"K  c #A0674A",
"L  c #837168",
"P  c #90786D",
"I  c #917D74",
"U  c #C76F44",
"Y  c #C96E42",
"T  c #CD7245",
"R  c #C7734C",
"E  c #CC754A",
"W  c #CE784D",
"Q  c #CC7B54",
"!  c #CC7F5A",
"~  c #CD825D",
"^  c #D08159",
"/  c #CD8562",
"(  c #CD8866",
")  c #CE8A69",
"_  c #D08761",
"`  c #D08965",
"'  c #D08E6D",
"]  c #C48B71",
"[  c #CF8F71",
"{  c #CF9274",
"}  c #CF957A",
"|  c #CF987F",
" . c #D09376",
".. c #D0967A",
"X. c #D0987E",
"o. c #BA9481",
"O. c #CF9980",
"+. c #D19C83",
"@. c #D19F89",
"#. c #D2A087",
"$. c #D2A38C",
"%. c #C0A496",
"&. c #D3A691",
"*. c #D3A995",
"=. c #D4AE9D",
"-. c #D5B09E",
";. c #C7AEA2",
":. c #D5B3A3",
">. c #D8B7A6",
",. c #D6B7A9",
"<. c #D7B9AB",
"1. c #D8B9AB",
"2. c #D7BDB0",
"3. c #D8BEB2",
"4. c #D9C1B6",
"5. c #DAC4BB",
"6. c #DBCBC3",
"7. c #DBCFC9",
"8. c #DDD2CD",
"9. c #DDD5D1",
"0. c #DED9D6",
/* pixels */
"=.=.=.-.=.:.5.-.-.=.=.=.=.=.-.-.=.-.:.6.=.=.=.-.-.-.-.-.=.=.=.4.3.=.=.=.=.=.=.=.=.=.=.=.8.=.=.=.=.=.=.-.=.=.-.-.=.7.=.-.-.=.=.-.",
"C C C C C T { m C C C C C C C m N C A +.m N N N N C C N N C N ( ! m C N C C C C C C C n =.n C C C B C C C M C B n &.B C M M C C ",
"A A A A C E ..C Z A A A A A A Z Z A H @.C Z A A A A A A A A A ) ~ A A A A A A A A A A C -.V C A A A A A A A Z A C *.A A A A A A ",
"A A A A A E } A A A A A A A A A A A H $.C A A A A A A A A A A ) _ C A A A A A A C A A C :.V A A A A A A A A A A V *.A A A A A A ",
"A A A A A E ..C A A A A A A A A A A H $.C S A A A A S A A A A ` ^ A A A A A A A A Z C C :.C S A A A A A A S S A C &.A A A A A A ",
"H H H H H W +.S H H H H H H H H H F U $.S H H H H G H H H H S [ ' S H S H H H H H H G A :.A H S H H H H H H H S F =.H H H H H H ",
"..+.+...X.#.*.X...X.} X.X...$.X...X.+.-.....X.......X.*...X...*.$.X.X.X.X.X.X.X.$.......<.} X.X...| } } #.#...X.} :.} X...X.} ..",
"W  ...W W W E W W W W W W W $._ W E R W W W W W W W E 1.T W W E W E W W E W E Q :.E W W E W W W W E W E +.' E W R E W W W W W W ",
"C ~ ` A A A A A A A A A C A } E A Z A A A A A S A V C =.C A A A A A A S A A A H &.C A A A A A A A Z Z A ) ! A C A A A A A A A A ",
"A ~ ` C A A A A S A A A A A } E A A A A A A S A A D C :.B A A A A A A A A A A H *.C V A A A A A A A A C ' ! A A A A A A A S A A ",
"A ~ ` A A A A A A S A S A A  .E A A A A A A A A A A C -.V A A A S S A A V Z A H *.C A S A A A A A A S C ' ~ A A A A A A A S A A ",
"C Q ~ C C C C C C C C C V C { T C C C C C N C C C C m =.m C C C C C C C C V V S &.B C C C C C C C C C m ) Q C C C C C V C C C C ",
"} *.=.{  . . .} .... ...{ } :.#. .{ .. ...{ } } .. . .6.{ } { {  . ..... .....X.5. ..... . .} }  ... .{ :.*. . .} '  .}  ... ...",
") ) ) ( )  .=.( ) ` ` ` ( ) ) ) ) ) [ :./ ) ( ) ) ) ) ( ) ) / *.#.` ` ` ) ) ) ` ( ( ` _ 5./ ) ) ) ` ) ) ) ) ( ( ( 4.( ) ` ` ) ) ",
"C A C A C E } C C A C A A C C V C A G #.C C C C C A C C C A C ` ^ C C C C C A C C A C B -.N C C C C C A C V Z C B *.C C V C C A ",
"A A A A V E } C A A A A A A A S Z A H #.C Z A A A A A S A A A ' _ A A A A A A A A A A C :.M A A S A A A A A A Z V *.A Z A S A A ",
"A A A A A E  .C A A A A A A A A A A H $.C A A A A A S A A A A ` ^ A A S A A A A Z Z A C -.C A A A S A A A A A A C *.A A A A A A ",
"A A S S A E  .A A S A A A A A A A A H #.C A A A A A A A A A C ` ^ C A S S A S A A Z V C :.C A S A A A A A A A A C *.A S A A A A ",
"H H H H H ^ X.H H H H H H H H H H H E $.S H H H H G H H H H H  .' H H H H H H H H H H H :.S H H H H H H H H H H F =.H H H H H H ",
"&.-.-.$.$.*.-.&.&.$.*.&.*.&.>.*.&.&.&.>.&.&.&.*.&.&.&.<.$.&.&.-.-.&.&.&.&.&.$.*.1.$.$.$.<.&.&.$.&.&.&.*.:.=.&.$.&.:.$.&.*.&.&.&.",
"H / ` S H S H S H S D S H S | W S F S S S S H S S H A ,.Z S S D S S H H H S S U =.A S H H H S H S A S S  .~ S H S A H S S S S H ",
"Z ~ ` A A A A A A A A Z Z A } E Z C A S A A S S A Z C =.C A A A S A A A A A A H &.C A A A A A A A A Z C ` ! A Z Z A S A S A A A ",
"A ~ ` A A A A A A A A A A A } E A A A A A A A A A A C =.B A A A A A A A A A A H &.C Z A A A A A A A A A { ! A A A A A A A S A S ",
"C ~ ~ A A A S A A A A A A A { E A A A S A A S A A A A =.V A A A A A A A Z V A H &.C A A A A A C A A A C ' ! C A A A A A A A A A ",
"C Q ~ C C C V B C B V B M C { T B C C C V C C C B V m =.n C C B B C C C C N N V $.m C C C C C V C V V n ( Q C C C C C M N C C C ",
"-.3.4.-.-.-.=.-.-.-.-.-.-.-.5.,.-.-.-.*.=.=.=.=.-.-.=.8.=.-.=.=.-.-.-.-.-.-.-.:.7.=.-.-.*.=.-.-.-.-.-.-.5.<.-.-.-.=.-.-.-.-.=.=.",
"G H H H H W O.G G H H H G H H H H h   > A H H H H G H G G H S } ` S H H H H G G H H H Z :.D G H F H G H H H H H S =.S G G H S H ",
"A A A A A E } C A A A A A A F V A Z .   b A v   . A A A A A C ) ^ A A Z A A A A A A A C P 3 . . O 7 Z S Z Z V A V *.A A Z Z A A ",
"A A A S Z E } V V A A A A A A S b V :   d Z A =   g A A A Z V ' ^ A A A A A A A S A A C $ & l Z 8   2 A A A A C C *.A A A A A A ",
"A A A A A E } A A A S S A S z 2     *   5 S o       & d   : A ) K   % A A v - . . 2 x C 0 3 A A V   . A A H A S V *.A A A A A A ",
"A S A A A E } C A A A S A A .   f b w   O A A j   & A Z   . V ) / .   v A =   d v O . c -.V Z s *   o A S A A Z V *.A A A A A A ",
"Z Z Z A A E } V F Z Z Z A A o   j Z H #   z Z Z .   v A *   f ) / 2   w Z .   Z Z s   3 :.p .     o g Z Z A Z Z Z *.A Z Z Z Z Z ",
"3.3.6.1.1.>.1.1.1.1.1.1.1.2.r   u <.,.e   i 1.,.,   L 0.y   t 1.<.L   q <.+   ;.9.%.  + :.@   , I :.<.<.6.5.,.1.<.:.1.1.<.1.1.1.",
"N Q ! B C C B B N N N n N N J   = M n p   - N N 9   < =.a   % M C c   o C 4   s $.n   . N .   M M M 1 - ( Q N N n C N C C N C N ",
"A ! ` A A A A A A A A A Z S ]     Z A Z   . A A 9   . =.M o   6 v l   . A b . O o.p   = A 6   9 V j & o ' ! A A A A A A A A A A ",
"A ! ` C A A A A A A A A A S  .;   d A A *   g *   2 k =.C 2   5 O   5 v A A v 2 X . : v A A 7 o   o 5 p ) ! A A A A A A A A A A ",
"A ! ) S A A A A S A A S A A ..E A A A A A A A A A A C :.N A A S A A A A Z Z A G *.C S S S S A S A A A C ) ~ A A A A A A A A A A ",
"H ! ' A S S S H H S S H F A O.E A H H S A A H H H S A :.Z S S S S S H H S D D G *.A S S A S S S S H S A { ~ S H H A H D S H H S ",
"+.*.*.@.@.@.*.+.+.@.@.+.@.+.-.&.+.+.@.*.+.@.@.@.+.@.+.<.+.@.+.&.&.+.+.+.+.+.+.#.>.+.@.+.-.+.@.@.+.+.#.+.=.&.+.+.+.=.+.+.@.+.+.+.",
"T T T T T ! @.T T T T T T T T T E T W *.Y T Y U T T T T T T T ..' T T E T T T E T T T H 1.Y T T E T E T T T T T Y -.T T T Y E T ",
"S A A A A E ..A S S A A A S S C A A Y #.C Z A A A A S A S A C ' _ C A A A A A A A A A C :.M A S A A A A A Z Z A C *.A A Z A A A ",
"A A A A A T ..V Z C A A A A A A A A H #.C A A A A A A A A A C ) ~ A A A A A A A A A A C :.N Z Z A A A A A A A Z C *.A A A A A A ",
"A A A A S E ..C S S A A A A A A A A H $.C A A A A A A A A A A ' ^ C A A A A A A A Z A N :.N A A A A A A A A A A V *.A A A S A A ",
"C A C A C T  .N C C A C C C A C C M D +.N A C A C N A C C A N ) ~ C A C A C A C C C C m -.n A A A C A C C A C C M *.C C C C A C ",
") ` ) ) ) ..-.( ) ) ) ) ) ) ' ` ( ( [ >._ ` ) ) ) ) ( ( ) ) ( *.$.) ` ` ` ' ` ) ( ) ( / 5.( ` ` ` ` ` ' ) ( ) ) ( 3.` ` ) ` ) ) ",
"..*.=....... ...............,.@...............X...O. .6.[ .... .......X.......+.5.{ ..X. .....X.........:.*....... .X.X.......X.",
"C ! ! C C C C C N A M N N A { Y N N N C C C C C C C N =.m C C C C C C C C C C A &.m C C C C C C M M C N ` ! C M M C C C C C C C ",
"A ! ( A A A A A A A A A A A ..E A Z S A S A A A A A C -.N A A A A A S A S A A H &.C A A A A A A A A A C ` ! A A A A A A S A A A ",
"A ! ` A A A A A A A S S S A  .W A S A A A A A A A A A -.N A A A A A A A V Z A H &.C A A A A A A A A A A ' ! A A A A A A A A A A ",
"A ! ` A A A A A A A C S A A  .W C A S A A A A S A A C -.C A A A A A A A A A V H *.C A A A A A A A A A A [ ! A A A A A A A A S A ",
"T ) [ T T T T T W T T T T T +.! T T T T T Y T T T T T >.H T T T T T T T T T T E -.H T T T E T T T T T H ..` T T T T T Y T T T T ",
"+.$.@.O.O.@.*.O.O.O.O.+.O.+.&.+.O.+.+.-.O.O.+.O.O.O.O.-.O.O.O.&.&.O.O.+.+.O.X.@.*.+.X.X.:.X.+.+.O.O.+.O.&.$.O.+.O.:.X.+.+.X.+.+.",
"Y Y H T H W +.H H T Y Y H Y H H Y H R &.S Y F Y Y H T S T H H  .) H H G H H Y H H H T S :.H H H Y H H T H H G H H -.H H H G H Y ",
"A A A A C W ..A A S C A A A A C Z A S @.C V A A A A A S A C C ' ~ A A A A A S A S S A C :.V S S A A A A A A A A C *.A A Z A A A ",
"A A C S A W  .C C A A S A A A A A A Y @.C S S A A A A S A A A ' _ A A A A A A A A A A C =.M A A A A S A A A A A C *.A A A A A A ",
"A A S S A W  .C S A A A A A S A A A H @.C A A A A A A S A A C ' ^ C S S A A A A A Z C C :.M A A A A S A A A A A C *.A S A A A A ",
"N C C C C Y [ m B B C N C C N C N M Z +.m N C C C N C N C N N ( ! N C B C C C B C C V m -.n C C C C C C N C C M n &.C C N C C m ",
"-.*.=.-.=.,.6.=.-.:.-.-.-.-.=.-.=.=.:.7.-.-.-.-.-.-.-.*.-.-.=.3.3.-.-.-.-.-.-.-.*.-.-.*.8.=.-.=.=.=.=.=.=.=.=.=.=.8.=.=.-.-.-.=.",
"Y ) [ T T Y T Y T T Y Y Y Y O.! Y Y Y Y Y Y Y Y U Y H <.G U Y Y Y Y Y Y Y Y Y R =.G Y T T Y Y Y Y Y Y H  .) Y Y U Y Y Y Y Y Y Y ",
"A ! ` C A C A A A A C V A A  .T A A M A S C S A A A C =.N S A A A A A A A A A S &.C A A A A A A Z M A C ) ! C A Z Z A A A A A A ",
"A ! ) A A A A A A A A A A A  .E A A A A A A A A A Z A =.C A A S A A A A A A A H &.C V A A A A A A S A C [ ~ A Z A A A A A A A A ",
"A Q ` A A A A A A A A A A A ..E A A A A A A A A A A A =.N A A A A A A A V Z A H *.C A A A S A A A A A A ) ! A A A A A A A A A A ",
"A ! _ A A A A A S A A A Z F  .E S A A A A Z A A A A C =.N A A A A A A A A A V F *.C A A A S A A A A A M ) ~ A A A S A Z A A A A ",
"Y ( [ Y Y Y Y Y Y T Y Y Y U +.Q Y Y Y Y Y Y Y Y Y Y Y ,.H Y Y Y Y Y Y Y Y Y Y R =.G Y T Y Y Y Y T Y Y H } ( H T Y Y Y Y Y Y Y Y "
};
