/* XPM */
static char *_b2b60a8b5394a10b7610124dde785a6[] = {
/* columns rows colors chars-per-pixel */
"64 64 46 1 ",
"  c black",
". c #060606",
"X c gray3",
"o c gray6",
"O c #101010",
"+ c #151515",
"@ c gray10",
"# c #1D1D1D",
"$ c #232323",
"% c gray15",
"& c #2A2A2A",
"* c gray18",
"= c #313131",
"- c #373737",
"; c #393939",
": c #3E3E3E",
"> c gray25",
", c #444444",
"< c gray29",
"1 c #4C4C4C",
"2 c #535353",
"3 c #565656",
"4 c #585858",
"5 c gray36",
"6 c #606060",
"7 c gray40",
"8 c DimGray",
"9 c #6F6F6F",
"0 c #727272",
"q c gray46",
"w c gray48",
"e c #7E7E7E",
"r c gray51",
"t c gray53",
"y c gray54",
"u c #8E8E8E",
"i c #939393",
"p c gray58",
"a c #9A9A9A",
"s c gray61",
"d c gray64",
"f c gray65",
"g c #A9A9A9",
"h c #ACACAC",
"j c gray69",
"k c #B6B6B6",
/* pixels */
"qfdgdpppaasffgghhhggdspspiuipsspertyippppyyittuiurtrwrtytwryyyr9",
"whdddsaadpafghhgjjhhggdsityupppyrrtyuyuiuttyterrtuyyyrtyteerrrr9",
"ujgffdaptpsfkjjjjkjhjjguyuyuppuitrtiuttq9etewwetttyuuyrq0trtyteq",
"uhjgdaie3isfjjhjhhgddss0quiiytiuwttuyee5<erteeererettte2<ttrtte0",
"yhffdaitypsapffsddssspiiaiupuyitqterrew0qrrertreweeetee9eerrwye9",
"rsddssppisssddaasdsdfuiiipapiuut00qwrttreryyttrrrtrweqrurrre9re8",
"9adassassddsddffddsssaiupiippiuy7790wtrtrtyyrywwyrttyttytrrtrwq8",
"9udisapsdsssasssadddspiupiuppiur7880qeeererrwwwerrrtttryytryrw97",
"7ysaiiiapaapiasppaadaiipspuuiuur898wetrrwwwwq0qwrrtruyrttrtyer95",
"7yaiiiuuyapsfspaapsappasspuuuuur088wweerrq0q9090qererrrtrtttrr06",
"8upauuuiuipadapsassappaaspiuuyye9808qwweew0w88888qewwrwrrtrreew7",
"9yiiiuiiiippppaaasddssssdppiuute8700qwqew08q98889q0q0wqewretrte6",
"8ttupiipiiipaasdassadfsssappiytw680wwe0qq090009908q0000q0etytrw7",
"5etyyiuiiiasaasddfdadfsasaiiuuur60weqeww00qw08808698900qqqttreq8",
"5erytuuiiasdddsasddsffsdsaapupiyqeeewwwwqqww09987767890qqqrrreq9",
"5eetuuuyyupsfdadffssfdssddfsiaiueqqrwtewwewqqqq98889009qq0rtrrq8",
"5reryuttryupfssfggsdgsaasfsspaiyeqqwwewereeqwwq9999qww7q00ertre8",
"3ettyyr8<ruafffffgdfgdsq7ppaiuyrqq0qqwq53q0qerq000qwww94,0wttrr0",
"3werrtrq6rtiasfssddfdsse0iiuutwq9q8000w850qweeq0wqwqw0q71qwrree0",
"3qwrwrerrertypapppipapiiuiuyteeq80999wrrwweewee0qeewq0q09q0eeewq",
"39wwqqrrqwwttiiiuiyipuuiutteeee970000etterteewewqqwqqq9weweq0ww0",
"29qqrwwqqqeetuiyyrruiyyyyrrqqqq079800qrreereewqqwqwwrwqeewwewweq",
"18wweq0q00qertrrreettreteq099900676980qwewwerwq09qqwerqwewwerwee",
"30qw0q8649qwwweww0qrytwww9887787557678909qq0qeqq090werwqwqeqewew",
"1987585546988qqq90ewrr0007536342,<2211235788646778768q9887467769",
",22<<<,1,,<13565236735732244,>:>;>,1,,<2211123233333663442233168",
",8qqw0776446800qwwqw8weq0w908531,4266790090qqq088993895777757907",
"<7qq0087646867w00qqerr6wrw00754335566789988007778887q090w0997865",
"<6q090888779qq00wwetyeeyieq0744125545557776777887688q900qq0wqq05",
"<8988w099999wqqqweeerrerieq06553266566567777679885000wqwq0wwwwq8",
"<80980099809qww0 .w0rrrrrrq78765372 X566 +7898  80wqewwerqwwwew9",
",0q900976000eeqw# 4errw8qtw79777577* ;77  :0q0  9qwewwe000weeew7",
"10009081>689qq0o   +w#..+9w94@..$687Xo72  o9w9  0wwe0er5:80wqwq9",
"199899841780ww0w6 +qerw3 #tw@ 15oX7w2 20X ,-rq  0qww9e0q878008w5",
"179800q9870eewqee. 9eeq1 .eq  qq< &rr%$to y@8q  00qq9q0q86800qw6",
">709qwqq868qeqqww% <wq:  ;77O     Xtue 9O p0@q  ww9q89090999q097",
":7090q0w999wqq990> %q0  <967688q8 .yii1-+ da;;  eeq0998wwq090q06",
">80qww99989909778> .0w@ 7q754%4q= *yipp#X saro  teee0qqrwwq09007",
">70qwwwq07678908@ $6wr8$..#78<O.X=euipse  fau4  yyurtrqtewqqq897",
";47900wq0800qqq0wwwyttetaprwrerr9ttiuassaaspuiuyuuityurewewwq896",
";5780qqqwqqrewq9errrteeqipyrtwrw0rruyuipppapuiuuuuyeyrewewwwq086",
":577qqqwwwweww0qeeewweeeiauttqew9tertryuiiapiuuyuiutyeerewqwq008",
">5689qwewwwq0qqqwerwrrryuaureeee0trrrrrtrtuuyyrrrttrrrereeqq0q09",
",5709wqwwqwqwqqqqerrretruiyrwwrq9rrttrreerttrtererrreterwee00qq8",
"<80wwwww00weewq0qwtyrqweeuytwqeq8tyrreeqweeertrrttweeterqerqwqq9",
"20qerrwq90qwwq00qwtyywqrwuyeweew8yurrwq0qqwerreerrwwewq09qwqw098",
"29qwrrw8580q9890eeeyyyrw6yurrrre9yterew750qwerewtrrwew04,9900988",
"18qwere5:4798889ereeyuu01tiytrrr7rw0qeq85890wetwwerweeq5<6999999",
"3qqqwtw735889800ew80ryteqiitytr08w90qwqq000qwwqwqwwwwwq998989988",
"4eq00wq0878098900080etqrutwqere87qwwq0qqweqqwwqwwweewerwre899887",
"5q000wwrq98weeq78wwwetwwur00qwq949wwqweeetttetteeewqwrtett000986",
"3qq89tett0qewe0890weytttywq9qeq719qrrtreqruiuiitrreqrtytreqq0006",
"5qwewttre0eewqqwqertyytiyewwqe97390rtreewrtyiytrweeeeteetrwwewq7",
"4qwtertrrwwwewweetrrtttrupewwe974qeeyrweryyyuuyrwqqweeeereeee006",
"20wwreteeeeewwtretiuyutrupyerw075qrttrttrrtyuytwwwqqqrrrewwew995",
"39qwweerr88weerrqwyyryyrrurrrew06erttytrrrertr9qqwqwqrewqqwqq996",
"3wwqeewttewqwq9qwwrrer0wyyrtrww85qwrterwwrttrtwq0ewqqreq0weqq087",
"3wqeewereewqq09eq0wqet0ewrqteeq95qwrweq0qeweeeq67qqqeeqwq9we0q98",
"3wrrqqwwweqqq99wwewwrr9qqq0wwqw94808q8990qqqq0q9899q9wew0qrrq087",
"5qqeeeww0qq0980rwwwqq999ww8089072750q09980qqeq9997980qq0qqrew987",
"2qwwwqq87098869eew0w080qwe909997268009764800088997990q998q0eq874",
"1890qq83,5667669qwqe090648q866551468774<=279099996779974:90w7755",
"26789981=14454347899778<-6096554,124552>:<57878955457774>5e06543",
"<5667875122332235898445478865754,<<1321>,146665423235655580963<2"
};
